<?xml version="1.0" encoding="UTF-8"?>
<svg xmlns="http://www.w3.org/2000/svg" viewBox="0 0 1024 1024"><defs><clipPath id="c"><path d="M-60,-60 H700 V116 a34,34 0 0 1 -34,34 H-60 Z"/></clipPath><linearGradient id="s" gradientUnits="userSpaceOnUse" x1="0" y1="0" x2="700" y2="0"><stop offset="0.0000" stop-color="#000" stop-opacity="0.120"/><stop offset="0.0250" stop-color="#fff" stop-opacity="0.087"/><stop offset="0.0500" stop-color="#fff" stop-opacity="0.146"/><stop offset="0.0750" stop-color="#fff" stop-opacity="0.184"/><stop offset="0.1000" stop-color="#fff" stop-opacity="0.212"/><stop offset="0.1250" stop-color="#fff" stop-opacity="0.232"/><stop offset="0.1500" stop-color="#fff" stop-opacity="0.247"/><stop offset="0.1750" stop-color="#fff" stop-opacity="0.258"/><stop offset="0.2000" stop-color="#fff" stop-opacity="0.265"/><stop offset="0.2250" stop-color="#fff" stop-opacity="0.274"/><stop offset="0.2500" stop-color="#fff" stop-opacity="0.294"/><stop offset="0.2750" stop-color="#fff" stop-opacity="0.300"/><stop offset="0.3000" stop-color="#fff" stop-opacity="0.300"/><stop offset="0.3250" stop-color="#fff" stop-opacity="0.300"/><stop offset="0.3500" stop-color="#fff" stop-opacity="0.300"/><stop offset="0.3750" stop-color="#fff" stop-opacity="0.300"/><stop offset="0.4000" stop-color="#fff" stop-opacity="0.300"/><stop offset="0.4250" stop-color="#fff" stop-opacity="0.300"/><stop offset="0.4500" stop-color="#fff" stop-opacity="0.300"/><stop offset="0.4750" stop-color="#fff" stop-opacity="0.261"/><stop offset="0.5000" stop-color="#fff" stop-opacity="0.197"/><stop offset="0.5250" stop-color="#fff" stop-opacity="0.161"/><stop offset="0.5500" stop-color="#fff" stop-opacity="0.136"/><stop offset="0.5750" stop-color="#fff" stop-opacity="0.113"/><stop offset="0.6000" stop-color="#fff" stop-opacity="0.089"/><stop offset="0.6250" stop-color="#fff" stop-opacity="0.064"/><stop offset="0.6500" stop-color="#fff" stop-opacity="0.037"/><stop offset="0.6750" stop-color="#fff" stop-opacity="0.009"/><stop offset="0.7000" stop-color="#000" stop-opacity="0.028"/><stop offset="0.7250" stop-color="#000" stop-opacity="0.070"/><stop offset="0.7500" stop-color="#000" stop-opacity="0.113"/><stop offset="0.7750" stop-color="#000" stop-opacity="0.159"/><stop offset="0.8000" stop-color="#000" stop-opacity="0.206"/><stop offset="0.8250" stop-color="#000" stop-opacity="0.255"/><stop offset="0.8500" stop-color="#000" stop-opacity="0.306"/><stop offset="0.8750" stop-color="#000" stop-opacity="0.359"/><stop offset="0.9000" stop-color="#000" stop-opacity="0.414"/><stop offset="0.9250" stop-color="#000" stop-opacity="0.474"/><stop offset="0.9500" stop-color="#000" stop-opacity="0.542"/><stop offset="0.9750" stop-color="#000" stop-opacity="0.629"/><stop offset="1.0000" stop-color="#000" stop-opacity="0.624"/></linearGradient><linearGradient id="v" x1="0" y1="0" x2="0" y2="1"><stop offset="0" stop-color="#000" stop-opacity="0.3"/><stop offset="0.75" stop-color="#000" stop-opacity="0"/><stop offset="1" stop-color="#000" stop-opacity="0.45"/></linearGradient></defs><g clip-path="url(#c)"><rect x="-60" y="-60" width="800" height="220" fill="#0E0E10"/><rect x="-60" y="-60" width="10" height="220" fill="#4E5057"/><rect x="-38" y="-60" width="10" height="220" fill="#4E5057"/><rect x="-16" y="-60" width="10" height="220" fill="#4E5057"/><rect x="6" y="-60" width="10" height="220" fill="#4E5057"/><rect x="28" y="-60" width="10" height="220" fill="#4E5057"/><rect x="50" y="-60" width="10" height="220" fill="#4E5057"/><rect x="72" y="-60" width="10" height="220" fill="#4E5057"/><rect x="94" y="-60" width="10" height="220" fill="#4E5057"/><rect x="116" y="-60" width="10" height="220" fill="#4E5057"/><rect x="138" y="-60" width="10" height="220" fill="#4E5057"/><rect x="160" y="-60" width="10" height="220" fill="#4E5057"/><rect x="182" y="-60" width="10" height="220" fill="#4E5057"/><rect x="204" y="-60" width="10" height="220" fill="#4E5057"/><rect x="226" y="-60" width="10" height="220" fill="#4E5057"/><rect x="248" y="-60" width="10" height="220" fill="#4E5057"/><rect x="270" y="-60" width="10" height="220" fill="#4E5057"/><rect x="292" y="-60" width="10" height="220" fill="#4E5057"/><rect x="314" y="-60" width="10" height="220" fill="#4E5057"/><rect x="336" y="-60" width="10" height="220" fill="#4E5057"/><rect x="358" y="-60" width="10" height="220" fill="#4E5057"/><rect x="380" y="-60" width="10" height="220" fill="#4E5057"/><rect x="402" y="-60" width="10" height="220" fill="#4E5057"/><rect x="424" y="-60" width="10" height="220" fill="#4E5057"/><rect x="446" y="-60" width="10" height="220" fill="#4E5057"/><rect x="468" y="-60" width="10" height="220" fill="#4E5057"/><rect x="490" y="-60" width="10" height="220" fill="#4E5057"/><rect x="512" y="-60" width="10" height="220" fill="#4E5057"/><rect x="534" y="-60" width="10" height="220" fill="#4E5057"/><rect x="556" y="-60" width="10" height="220" fill="#4E5057"/><rect x="578" y="-60" width="10" height="220" fill="#4E5057"/><rect x="600" y="-60" width="10" height="220" fill="#4E5057"/><rect x="622" y="-60" width="10" height="220" fill="#4E5057"/><rect x="644" y="-60" width="10" height="220" fill="#4E5057"/><rect x="666" y="-60" width="10" height="220" fill="#4E5057"/><rect x="688" y="-60" width="10" height="220" fill="#4E5057"/><rect x="-60" y="-60" width="800" height="220" fill="url(#s)"/><rect x="-60" y="-60" width="800" height="220" fill="url(#v)"/></g></svg>
