<?xml version="1.0" encoding="UTF-8"?>
<svg xmlns="http://www.w3.org/2000/svg" viewBox="0 0 1024 1024"><defs><clipPath id="l"><path d="M622.00,72.00 h70.00 a18.00,18.00 0 0 1 18.00,18.00 v992.00 a18.00,18.00 0 0 1 -18.00,18.00 h-70.00 a18.00,18.00 0 0 1 -18.00,-18.00 v-992.00 a18.00,18.00 0 0 1 18.00,-18.00 z"/></clipPath><linearGradient id="ls" gradientUnits="userSpaceOnUse" x1="604" y1="0" x2="710" y2="0"><stop offset="0" stop-color="#fff" stop-opacity="0.1"/><stop offset="1" stop-color="#000" stop-opacity="0.7"/></linearGradient></defs><g clip-path="url(#l)"><rect x="604" y="72" width="106" height="1028" fill="#000000"/><rect x="604" y="82" width="106" height="3" fill="#141414"/><rect x="604" y="91" width="106" height="3" fill="#141414"/><rect x="604" y="100" width="106" height="3" fill="#141414"/><rect x="604" y="109" width="106" height="3" fill="#141414"/><rect x="604" y="118" width="106" height="3" fill="#141414"/><rect x="604" y="127" width="106" height="3" fill="#141414"/><rect x="604" y="136" width="106" height="3" fill="#141414"/><rect x="604" y="145" width="106" height="3" fill="#141414"/><rect x="604" y="154" width="106" height="3" fill="#141414"/><rect x="604" y="163" width="106" height="3" fill="#141414"/><rect x="604" y="172" width="106" height="3" fill="#141414"/><rect x="604" y="181" width="106" height="3" fill="#141414"/><rect x="604" y="190" width="106" height="3" fill="#141414"/><rect x="604" y="199" width="106" height="3" fill="#141414"/><rect x="604" y="208" width="106" height="3" fill="#141414"/><rect x="604" y="217" width="106" height="3" fill="#141414"/><rect x="604" y="226" width="106" height="3" fill="#141414"/><rect x="604" y="235" width="106" height="3" fill="#141414"/><rect x="604" y="244" width="106" height="3" fill="#141414"/><rect x="604" y="253" width="106" height="3" fill="#141414"/><rect x="604" y="262" width="106" height="3" fill="#141414"/><rect x="604" y="271" width="106" height="3" fill="#141414"/><rect x="604" y="280" width="106" height="3" fill="#141414"/><rect x="604" y="289" width="106" height="3" fill="#141414"/><rect x="604" y="298" width="106" height="3" fill="#141414"/><rect x="604" y="307" width="106" height="3" fill="#141414"/><rect x="604" y="316" width="106" height="3" fill="#141414"/><rect x="604" y="325" width="106" height="3" fill="#141414"/><rect x="604" y="334" width="106" height="3" fill="#141414"/><rect x="604" y="343" width="106" height="3" fill="#141414"/><rect x="604" y="352" width="106" height="3" fill="#141414"/><rect x="604" y="361" width="106" height="3" fill="#141414"/><rect x="604" y="370" width="106" height="3" fill="#141414"/><rect x="604" y="379" width="106" height="3" fill="#141414"/><rect x="604" y="388" width="106" height="3" fill="#141414"/><rect x="604" y="397" width="106" height="3" fill="#141414"/><rect x="604" y="406" width="106" height="3" fill="#141414"/><rect x="604" y="415" width="106" height="3" fill="#141414"/><rect x="604" y="424" width="106" height="3" fill="#141414"/><rect x="604" y="433" width="106" height="3" fill="#141414"/><rect x="604" y="442" width="106" height="3" fill="#141414"/><rect x="604" y="451" width="106" height="3" fill="#141414"/><rect x="604" y="460" width="106" height="3" fill="#141414"/><rect x="604" y="469" width="106" height="3" fill="#141414"/><rect x="604" y="478" width="106" height="3" fill="#141414"/><rect x="604" y="487" width="106" height="3" fill="#141414"/><rect x="604" y="496" width="106" height="3" fill="#141414"/><rect x="604" y="505" width="106" height="3" fill="#141414"/><rect x="604" y="514" width="106" height="3" fill="#141414"/><rect x="604" y="523" width="106" height="3" fill="#141414"/><rect x="604" y="532" width="106" height="3" fill="#141414"/><rect x="604" y="541" width="106" height="3" fill="#141414"/><rect x="604" y="550" width="106" height="3" fill="#141414"/><rect x="604" y="559" width="106" height="3" fill="#141414"/><rect x="604" y="568" width="106" height="3" fill="#141414"/><rect x="604" y="577" width="106" height="3" fill="#141414"/><rect x="604" y="586" width="106" height="3" fill="#141414"/><rect x="604" y="595" width="106" height="3" fill="#141414"/><rect x="604" y="604" width="106" height="3" fill="#141414"/><rect x="604" y="613" width="106" height="3" fill="#141414"/><rect x="604" y="622" width="106" height="3" fill="#141414"/><rect x="604" y="631" width="106" height="3" fill="#141414"/><rect x="604" y="640" width="106" height="3" fill="#141414"/><rect x="604" y="649" width="106" height="3" fill="#141414"/><rect x="604" y="658" width="106" height="3" fill="#141414"/><rect x="604" y="667" width="106" height="3" fill="#141414"/><rect x="604" y="676" width="106" height="3" fill="#141414"/><rect x="604" y="685" width="106" height="3" fill="#141414"/><rect x="604" y="694" width="106" height="3" fill="#141414"/><rect x="604" y="703" width="106" height="3" fill="#141414"/><rect x="604" y="712" width="106" height="3" fill="#141414"/><rect x="604" y="721" width="106" height="3" fill="#141414"/><rect x="604" y="730" width="106" height="3" fill="#141414"/><rect x="604" y="739" width="106" height="3" fill="#141414"/><rect x="604" y="748" width="106" height="3" fill="#141414"/><rect x="604" y="757" width="106" height="3" fill="#141414"/><rect x="604" y="766" width="106" height="3" fill="#141414"/><rect x="604" y="775" width="106" height="3" fill="#141414"/><rect x="604" y="784" width="106" height="3" fill="#141414"/><rect x="604" y="793" width="106" height="3" fill="#141414"/><rect x="604" y="802" width="106" height="3" fill="#141414"/><rect x="604" y="811" width="106" height="3" fill="#141414"/><rect x="604" y="820" width="106" height="3" fill="#141414"/><rect x="604" y="829" width="106" height="3" fill="#141414"/><rect x="604" y="838" width="106" height="3" fill="#141414"/><rect x="604" y="847" width="106" height="3" fill="#141414"/><rect x="604" y="856" width="106" height="3" fill="#141414"/><rect x="604" y="865" width="106" height="3" fill="#141414"/><rect x="604" y="874" width="106" height="3" fill="#141414"/><rect x="604" y="883" width="106" height="3" fill="#141414"/><rect x="604" y="892" width="106" height="3" fill="#141414"/><rect x="604" y="901" width="106" height="3" fill="#141414"/><rect x="604" y="910" width="106" height="3" fill="#141414"/><rect x="604" y="919" width="106" height="3" fill="#141414"/><rect x="604" y="928" width="106" height="3" fill="#141414"/><rect x="604" y="937" width="106" height="3" fill="#141414"/><rect x="604" y="946" width="106" height="3" fill="#141414"/><rect x="604" y="955" width="106" height="3" fill="#141414"/><rect x="604" y="964" width="106" height="3" fill="#141414"/><rect x="604" y="973" width="106" height="3" fill="#141414"/><rect x="604" y="982" width="106" height="3" fill="#141414"/><rect x="604" y="991" width="106" height="3" fill="#141414"/><rect x="604" y="1000" width="106" height="3" fill="#141414"/><rect x="604" y="1009" width="106" height="3" fill="#141414"/><rect x="604" y="1018" width="106" height="3" fill="#141414"/><rect x="604" y="1027" width="106" height="3" fill="#141414"/><rect x="604" y="1036" width="106" height="3" fill="#141414"/><rect x="604" y="1045" width="106" height="3" fill="#141414"/><rect x="604" y="1054" width="106" height="3" fill="#141414"/><rect x="604" y="72" width="106" height="1028" fill="url(#ls)"/></g></svg>
