<?xml version="1.0" encoding="UTF-8"?>
<svg xmlns="http://www.w3.org/2000/svg" viewBox="0 0 1024 1024"><defs><clipPath id="l"><path d="M692.00,312.00 h6.00 a18.00,18.00 0 0 1 18.00,18.00 v752.00 a18.00,18.00 0 0 1 -18.00,18.00 h-6.00 a18.00,18.00 0 0 1 -18.00,-18.00 v-752.00 a18.00,18.00 0 0 1 18.00,-18.00 z"/></clipPath><linearGradient id="ls" gradientUnits="userSpaceOnUse" x1="674" y1="0" x2="716" y2="0"><stop offset="0" stop-color="#fff" stop-opacity="0.1"/><stop offset="1" stop-color="#000" stop-opacity="0.7"/></linearGradient></defs><g clip-path="url(#l)"><rect x="674" y="312" width="42" height="788" fill="#000000"/><rect x="674" y="322" width="42" height="3" fill="#141414"/><rect x="674" y="331" width="42" height="3" fill="#141414"/><rect x="674" y="340" width="42" height="3" fill="#141414"/><rect x="674" y="349" width="42" height="3" fill="#141414"/><rect x="674" y="358" width="42" height="3" fill="#141414"/><rect x="674" y="367" width="42" height="3" fill="#141414"/><rect x="674" y="376" width="42" height="3" fill="#141414"/><rect x="674" y="385" width="42" height="3" fill="#141414"/><rect x="674" y="394" width="42" height="3" fill="#141414"/><rect x="674" y="403" width="42" height="3" fill="#141414"/><rect x="674" y="412" width="42" height="3" fill="#141414"/><rect x="674" y="421" width="42" height="3" fill="#141414"/><rect x="674" y="430" width="42" height="3" fill="#141414"/><rect x="674" y="439" width="42" height="3" fill="#141414"/><rect x="674" y="448" width="42" height="3" fill="#141414"/><rect x="674" y="457" width="42" height="3" fill="#141414"/><rect x="674" y="466" width="42" height="3" fill="#141414"/><rect x="674" y="475" width="42" height="3" fill="#141414"/><rect x="674" y="484" width="42" height="3" fill="#141414"/><rect x="674" y="493" width="42" height="3" fill="#141414"/><rect x="674" y="502" width="42" height="3" fill="#141414"/><rect x="674" y="511" width="42" height="3" fill="#141414"/><rect x="674" y="520" width="42" height="3" fill="#141414"/><rect x="674" y="529" width="42" height="3" fill="#141414"/><rect x="674" y="538" width="42" height="3" fill="#141414"/><rect x="674" y="547" width="42" height="3" fill="#141414"/><rect x="674" y="556" width="42" height="3" fill="#141414"/><rect x="674" y="565" width="42" height="3" fill="#141414"/><rect x="674" y="574" width="42" height="3" fill="#141414"/><rect x="674" y="583" width="42" height="3" fill="#141414"/><rect x="674" y="592" width="42" height="3" fill="#141414"/><rect x="674" y="601" width="42" height="3" fill="#141414"/><rect x="674" y="610" width="42" height="3" fill="#141414"/><rect x="674" y="619" width="42" height="3" fill="#141414"/><rect x="674" y="628" width="42" height="3" fill="#141414"/><rect x="674" y="637" width="42" height="3" fill="#141414"/><rect x="674" y="646" width="42" height="3" fill="#141414"/><rect x="674" y="655" width="42" height="3" fill="#141414"/><rect x="674" y="664" width="42" height="3" fill="#141414"/><rect x="674" y="673" width="42" height="3" fill="#141414"/><rect x="674" y="682" width="42" height="3" fill="#141414"/><rect x="674" y="691" width="42" height="3" fill="#141414"/><rect x="674" y="700" width="42" height="3" fill="#141414"/><rect x="674" y="709" width="42" height="3" fill="#141414"/><rect x="674" y="718" width="42" height="3" fill="#141414"/><rect x="674" y="727" width="42" height="3" fill="#141414"/><rect x="674" y="736" width="42" height="3" fill="#141414"/><rect x="674" y="745" width="42" height="3" fill="#141414"/><rect x="674" y="754" width="42" height="3" fill="#141414"/><rect x="674" y="763" width="42" height="3" fill="#141414"/><rect x="674" y="772" width="42" height="3" fill="#141414"/><rect x="674" y="781" width="42" height="3" fill="#141414"/><rect x="674" y="790" width="42" height="3" fill="#141414"/><rect x="674" y="799" width="42" height="3" fill="#141414"/><rect x="674" y="808" width="42" height="3" fill="#141414"/><rect x="674" y="817" width="42" height="3" fill="#141414"/><rect x="674" y="826" width="42" height="3" fill="#141414"/><rect x="674" y="835" width="42" height="3" fill="#141414"/><rect x="674" y="844" width="42" height="3" fill="#141414"/><rect x="674" y="853" width="42" height="3" fill="#141414"/><rect x="674" y="862" width="42" height="3" fill="#141414"/><rect x="674" y="871" width="42" height="3" fill="#141414"/><rect x="674" y="880" width="42" height="3" fill="#141414"/><rect x="674" y="889" width="42" height="3" fill="#141414"/><rect x="674" y="898" width="42" height="3" fill="#141414"/><rect x="674" y="907" width="42" height="3" fill="#141414"/><rect x="674" y="916" width="42" height="3" fill="#141414"/><rect x="674" y="925" width="42" height="3" fill="#141414"/><rect x="674" y="934" width="42" height="3" fill="#141414"/><rect x="674" y="943" width="42" height="3" fill="#141414"/><rect x="674" y="952" width="42" height="3" fill="#141414"/><rect x="674" y="961" width="42" height="3" fill="#141414"/><rect x="674" y="970" width="42" height="3" fill="#141414"/><rect x="674" y="979" width="42" height="3" fill="#141414"/><rect x="674" y="988" width="42" height="3" fill="#141414"/><rect x="674" y="997" width="42" height="3" fill="#141414"/><rect x="674" y="1006" width="42" height="3" fill="#141414"/><rect x="674" y="1015" width="42" height="3" fill="#141414"/><rect x="674" y="1024" width="42" height="3" fill="#141414"/><rect x="674" y="1033" width="42" height="3" fill="#141414"/><rect x="674" y="1042" width="42" height="3" fill="#141414"/><rect x="674" y="1051" width="42" height="3" fill="#141414"/><rect x="674" y="312" width="42" height="788" fill="url(#ls)"/></g></svg>
